<svg id="Layer_1" data-name="Layer 1" xmlns="http://www.w3.org/2000/svg" viewBox="0 0 512 512"><defs><style>.cls-1{fill:#ffd38d;}.cls-2{fill:#efeae6;}.cls-3{fill:#6d4135;}</style></defs><title>clipboard-filled</title><rect class="cls-1" x="71.68" y="61.44" width="368.64" height="430.08"/><rect class="cls-2" x="174.08" y="20.48" width="163.84" height="81.92"/><path class="cls-3" d="M440.32,41H358.4V20.48A20.48,20.48,0,0,0,337.92,0H174.08A20.48,20.48,0,0,0,153.6,20.48V41H71.68A20.48,20.48,0,0,0,51.2,61.44V491.52A20.48,20.48,0,0,0,71.68,512H440.32a20.48,20.48,0,0,0,20.48-20.48V61.44A20.48,20.48,0,0,0,440.32,41ZM194.56,41H317.44v41H194.56ZM419.84,471H92.16V81.92H153.6V102.4a20.48,20.48,0,0,0,20.48,20.48H337.92A20.48,20.48,0,0,0,358.4,102.4V81.92h61.44Z"/><path class="cls-3" d="M317.44,286.72H194.56a20.48,20.48,0,0,0,0,41H317.44a20.48,20.48,0,0,0,0-41Z"/><path class="cls-3" d="M317.44,368.64H194.56a20.48,20.48,0,0,0,0,41H317.44a20.48,20.48,0,1,0,0-41Z"/><path class="cls-3" d="M317.44,204.8H194.56a20.48,20.48,0,1,0,0,41H317.44a20.48,20.48,0,1,0,0-41Z"/></svg>